<svg xmlns="http://www.w3.org/2000/svg" xmlns:xlink="http://www.w3.org/1999/xlink" viewBox="0 0 190 50"><defs><style>.cls-1{fill:url(#Unbenannter_Verlauf_39);}.cls-2{fill:#ddde00;}</style><radialGradient id="Unbenannter_Verlauf_39" cx="113.25" cy="20.56" r="63.96" gradientTransform="translate(-55.25 17.12) scale(1.33 0.38)" gradientUnits="userSpaceOnUse"><stop offset="0" stop-color="#eae654" stop-opacity="0.85"/><stop offset="0.22" stop-color="#eae656" stop-opacity="0.84"/><stop offset="0.37" stop-color="#ebe75e" stop-opacity="0.8"/><stop offset="0.49" stop-color="#ece86a" stop-opacity="0.74"/><stop offset="0.61" stop-color="#edea7c" stop-opacity="0.64"/><stop offset="0.71" stop-color="#efed92" stop-opacity="0.53"/><stop offset="0.81" stop-color="#f2f0ae" stop-opacity="0.38"/><stop offset="0.91" stop-color="#f5f4d0" stop-opacity="0.21"/><stop offset="0.99" stop-color="#f8f8f5" stop-opacity="0.02"/><stop offset="1" stop-color="#f8f8f8" stop-opacity="0"/></radialGradient></defs><g id="Ebene_1" data-name="Ebene 1"><rect class="cls-1" width="190" height="50"/></g><g id="Ebene_2" data-name="Ebene 2"><path class="cls-2" d="M21.23,14.47a1.5,1.5,0,0,0,0-3,1.5,1.5,0,0,0,0,3Z" transform="translate(0 0)"/><path class="cls-2" d="M95.29,28c3.22,0,3.22-5,0-5s-3.22,5,0,5Z" transform="translate(0 0)"/><path class="cls-2" d="M64.53,26.44c3.22,0,3.22-5,0-5s-3.22,5,0,5Z" transform="translate(0 0)"/><path class="cls-2" d="M82,39.89c3.22,0,3.22-5,0-5s-3.22,5,0,5Z" transform="translate(0 0)"/><path class="cls-2" d="M119.05,25.08c3.21,0,3.22-5,0-5s-3.23,5,0,5Z" transform="translate(0 0)"/><path class="cls-2" d="M115,11.25c3.21,0,3.22-5,0-5s-3.23,5,0,5Z" transform="translate(0 0)"/><path class="cls-2" d="M80.15,15.86c3.22,0,3.23-5,0-5s-3.22,5,0,5Z" transform="translate(0 0)"/><path class="cls-2" d="M149.82,16.05c3.22,0,3.22-5,0-5s-3.22,5,0,5Z" transform="translate(0 0)"/><path class="cls-2" d="M140.49,42.41c3.22,0,3.22-5,0-5s-3.22,5,0,5Z" transform="translate(0 0)"/><path class="cls-2" d="M42.32,39.33c3.22,0,3.23-5,0-5s-3.22,5,0,5Z" transform="translate(0 0)"/><path class="cls-2" d="M41.18,13c3.22,0,3.23-5,0-5s-3.22,5,0,5Z" transform="translate(0 0)"/><path class="cls-2" d="M131.75,8.31a1.5,1.5,0,0,0,0-3,1.5,1.5,0,0,0,0,3Z" transform="translate(0 0)"/><path class="cls-2" d="M124.06,35.89a1.5,1.5,0,0,0,0-3,1.5,1.5,0,0,0,0,3Z" transform="translate(0 0)"/><path class="cls-2" d="M113.35,40.93a1.5,1.5,0,0,0,0-3,1.5,1.5,0,0,0,0,3Z" transform="translate(0 0)"/><path class="cls-2" d="M99.52,15.24a1.5,1.5,0,0,0,0-3,1.5,1.5,0,0,0,0,3Z" transform="translate(0 0)"/><path class="cls-2" d="M65.92,4a1.5,1.5,0,0,0,0-3,1.5,1.5,0,0,0,0,3Z" transform="translate(0 0)"/><path class="cls-2" d="M47.27,22.36a1.5,1.5,0,0,0,0-3,1.5,1.5,0,0,0,0,3Z" transform="translate(0 0)"/><path class="cls-2" d="M57,40.07a1.5,1.5,0,0,0,0-3,1.5,1.5,0,0,0,0,3Z" transform="translate(0 0)"/><path class="cls-2" d="M28.72,32.37a1.5,1.5,0,0,0,0-3,1.5,1.5,0,0,0,0,3Z" transform="translate(0 0)"/><path class="cls-2" d="M20.25,44.69a1.5,1.5,0,0,0,0-3,1.5,1.5,0,0,0,0,3Z" transform="translate(0 0)"/><path class="cls-2" d="M102.62,48.73a1.5,1.5,0,0,0,0-3,1.5,1.5,0,0,0,0,3Z" transform="translate(0 0)"/><path class="cls-2" d="M108.48,29.68a1.5,1.5,0,0,0,0-3,1.5,1.5,0,0,0,0,3Z" transform="translate(0 0)"/><path class="cls-2" d="M89.59,4.08a1.5,1.5,0,0,0,0-3,1.5,1.5,0,0,0,0,3Z" transform="translate(0 0)"/><path class="cls-2" d="M130.61,25.63a1.5,1.5,0,0,0,0-3,1.5,1.5,0,0,0,0,3Z" transform="translate(0 0)"/><path class="cls-2" d="M152.26,31.6a1.5,1.5,0,0,0,0-3,1.5,1.5,0,0,0,0,3Z" transform="translate(0 0)"/><path class="cls-2" d="M167.73,21a1.5,1.5,0,0,0,0-3,1.5,1.5,0,0,0,0,3Z" transform="translate(0 0)"/><path class="cls-2" d="M140.22,21a1.5,1.5,0,0,0,0-3,1.5,1.5,0,0,0,0,3Z" transform="translate(0 0)"/><path class="cls-2" d="M177,2.5a.5.5,0,0,0,0-1,.5.5,0,0,0,0,1Z" transform="translate(0 0)"/><path class="cls-2" d="M186.65,10.12l-.17.19a.34.34,0,0,0-.1.16.47.47,0,0,0,0,.38.29.29,0,0,0,.1.16l.1.08a.48.48,0,0,0,.26.07l.13,0a.42.42,0,0,0,.22-.13l.16-.19a.36.36,0,0,0,.11-.16.47.47,0,0,0,0-.38.31.31,0,0,0-.11-.16l-.1-.08A.45.45,0,0,0,187,10l-.13,0a.38.38,0,0,0-.22.13Z" transform="translate(0 0)"/><path class="cls-2" d="M178.31,25.6a.5.5,0,0,0,0-1,.5.5,0,0,0,0,1Z" transform="translate(0 0)"/><path class="cls-2" d="M178.14,14.05a.5.5,0,0,0,0-1,.5.5,0,0,0,0,1Z" transform="translate(0 0)"/><path class="cls-2" d="M166.91,8.08a.5.5,0,0,0,0-1,.5.5,0,0,0,0,1Z" transform="translate(0 0)"/><path class="cls-2" d="M158,3.38a.5.5,0,0,0,0-1,.5.5,0,0,0,0,1Z" transform="translate(0 0)"/><path class="cls-2" d="M165,31.37a.5.5,0,0,0,0-1,.5.5,0,0,0,0,1Z" transform="translate(0 0)"/><path class="cls-2" d="M167.24,46.58a.5.5,0,0,0,0-1,.5.5,0,0,0,0,1Z" transform="translate(0 0)"/><path class="cls-2" d="M177.49,38.49a.5.5,0,0,0,0-1,.5.5,0,0,0,0,1Z" transform="translate(0 0)"/><path class="cls-2" d="M25.23,3.77a.5.5,0,0,0,0-1,.5.5,0,0,0,0,1Z" transform="translate(0 0)"/><path class="cls-2" d="M7.23,19.24a.5.5,0,0,0,0-1,.5.5,0,0,0,0,1Z" transform="translate(0 0)"/><path class="cls-2" d="M3,2.69a.5.5,0,0,0,0-1,.5.5,0,0,0,0,1Z" transform="translate(0 0)"/><path class="cls-2" d="M12.44,5.19a.5.5,0,0,0,0-1,.5.5,0,0,0,0,1Z" transform="translate(0 0)"/><path class="cls-2" d="M7.43,39.76a.5.5,0,0,0,0-1,.5.5,0,0,0,0,1Z" transform="translate(0 0)"/><path class="cls-2" d="M11.14,48.5a.5.5,0,0,0,0-1,.5.5,0,0,0,0,1Z" transform="translate(0 0)"/><path class="cls-2" d="M15.86,30.22a.5.5,0,0,0,0-1,.5.5,0,0,0,0,1Z" transform="translate(0 0)"/><path class="cls-2" d="M64.44,48.4a.5.5,0,0,0,0-1,.5.5,0,0,0,0,1Z" transform="translate(0 0)"/><path class="cls-2" d="M76.08,30.79a.5.5,0,0,0,0-1,.5.5,0,0,0,0,1Z" transform="translate(0 0)"/><path class="cls-2" d="M71,39.07a.5.5,0,0,0,0-1,.5.5,0,0,0,0,1Z" transform="translate(0 0)"/><path class="cls-2" d="M91.71,38.3a.5.5,0,0,0,0-1,.5.5,0,0,0,0,1Z" transform="translate(0 0)"/><path class="cls-2" d="M59.64,13.47a.5.5,0,0,0,0-1,.5.5,0,0,0,0,1Z" transform="translate(0 0)"/><path class="cls-2" d="M123.94,12.32a.5.5,0,0,0,0-1,.5.5,0,0,0,0,1Z" transform="translate(0 0)"/><path class="cls-2" d="M98.55,3.27a.5.5,0,0,0,0-1,.5.5,0,0,0,0,1Z" transform="translate(0 0)"/><path class="cls-2" d="M106.52,14.63a.5.5,0,0,0,0-1,.5.5,0,0,0,0,1Z" transform="translate(0 0)"/><path class="cls-2" d="M127,45.61a.5.5,0,0,0,0-1,.5.5,0,0,0,0,1Z" transform="translate(0 0)"/><path class="cls-2" d="M125.24,41.19a.5.5,0,0,0,0-1,.5.5,0,0,0,0,1Z" transform="translate(0 0)"/><path class="cls-2" d="M141.69,31.26a.5.5,0,0,0,0-1,.5.5,0,0,0,0,1Z" transform="translate(0 0)"/><path class="cls-2" d="M54.44,7.5a.5.5,0,0,0,0-1,.5.5,0,0,0,0,1Z" transform="translate(0 0)"/></g></svg>