<svg xmlns="http://www.w3.org/2000/svg" xmlns:xlink="http://www.w3.org/1999/xlink" viewBox="0 0 110 26"><defs><style>.cls-1{fill:url(#Unbenannter_Verlauf_39);}.cls-2{fill:#ddde00;}</style><radialGradient id="Unbenannter_Verlauf_39" cx="55" cy="13" r="48.68" gradientTransform="translate(-0.5 9.6) scale(1.01 0.26)" gradientUnits="userSpaceOnUse"><stop offset="0" stop-color="#eae654" stop-opacity="0.85"/><stop offset="0.22" stop-color="#eae656" stop-opacity="0.84"/><stop offset="0.37" stop-color="#ebe75e" stop-opacity="0.8"/><stop offset="0.49" stop-color="#ece86a" stop-opacity="0.74"/><stop offset="0.61" stop-color="#edea7c" stop-opacity="0.64"/><stop offset="0.71" stop-color="#efed92" stop-opacity="0.53"/><stop offset="0.81" stop-color="#f2f0ae" stop-opacity="0.38"/><stop offset="0.91" stop-color="#f5f4d0" stop-opacity="0.21"/><stop offset="0.99" stop-color="#f8f8f5" stop-opacity="0.02"/><stop offset="1" stop-color="#f8f8f8" stop-opacity="0"/></radialGradient></defs><g id="Ebene_1" data-name="Ebene 1"><rect class="cls-1" width="110" height="26"/></g><g id="Ebene_2" data-name="Ebene 2"><path class="cls-2" d="M18.06,9.31a1.5,1.5,0,0,0,0-3,1.5,1.5,0,0,0,0,3Z"/><path class="cls-2" d="M55.05,15.6c3.22,0,3.22-5,0-5s-3.22,5,0,5Z"/><path class="cls-2" d="M39.68,15c3.22,0,3.23-5,0-5s-3.22,5,0,5Z"/><path class="cls-2" d="M49,22.75c3.22,0,3.22-5,0-5s-3.22,5,0,5Z"/><path class="cls-2" d="M68,15.43c3.21,0,3.22-5,0-5s-3.23,5,0,5Z"/><path class="cls-2" d="M64.89,7.47c3.21,0,3.22-5,0-5s-3.23,5,0,5Z"/><path class="cls-2" d="M47.49,10.48c3.22,0,3.22-5,0-5s-3.22,5,0,5Z"/><path class="cls-2" d="M82.28,10.56c3.22,0,3.23-5,0-5s-3.22,5,0,5Z"/><path class="cls-2" d="M84,22.75c3.22,0,3.22-5,0-5s-3.22,5,0,5Z"/><path class="cls-2" d="M27,21.45c3.22,0,3.22-5,0-5s-3.22,5,0,5Z"/><path class="cls-2" d="M26.43,8.2c3.22,0,3.22-5,0-5s-3.22,5,0,5Z"/><path class="cls-2" d="M73.26,6.71a1.5,1.5,0,0,0,0-3,1.5,1.5,0,0,0,0,3Z"/><path class="cls-2" d="M74.72,22.08a1.5,1.5,0,0,0,0-3,1.5,1.5,0,0,0,0,3Z"/><path class="cls-2" d="M65.13,21a1.5,1.5,0,0,0,0-3,1.5,1.5,0,0,0,0,3Z"/><path class="cls-2" d="M57.16,9.64a1.5,1.5,0,0,0,0-3,1.5,1.5,0,0,0,0,3Z"/><path class="cls-2" d="M38.79,4.35a1.5,1.5,0,0,0,0-3,1.5,1.5,0,0,0,0,3Z"/><path class="cls-2" d="M31.07,12.65a1.5,1.5,0,0,0,0-3,1.5,1.5,0,0,0,0,3Z"/><path class="cls-2" d="M35.94,20.13a1.5,1.5,0,0,0,0-3,1.5,1.5,0,0,0,0,3Z"/><path class="cls-2" d="M21.8,16.87a1.5,1.5,0,0,0,0-3,1.5,1.5,0,0,0,0,3Z"/><path class="cls-2" d="M17.57,22.08a1.5,1.5,0,0,0,0-3,1.5,1.5,0,0,0,0,3Z"/><path class="cls-2" d="M58.71,23.78a1.5,1.5,0,0,0,0-3,1.5,1.5,0,0,0,0,3Z"/><path class="cls-2" d="M61.63,15.74a1.5,1.5,0,0,0,0-3,1.5,1.5,0,0,0,0,3Z"/><path class="cls-2" d="M52.2,4.92a1.5,1.5,0,0,0,0-3,1.5,1.5,0,0,0,0,3Z"/><path class="cls-2" d="M72.69,14a1.5,1.5,0,0,0,0-3,1.5,1.5,0,0,0,0,3Z"/><path class="cls-2" d="M83.5,16.55a1.5,1.5,0,0,0,0-3,1.5,1.5,0,0,0,0,3Z"/><path class="cls-2" d="M91.23,12.08a1.5,1.5,0,0,0,0-3,1.5,1.5,0,0,0,0,3Z"/><path class="cls-2" d="M77.49,14.19a1.5,1.5,0,0,0,0-3,1.5,1.5,0,0,0,0,3Z"/><path class="cls-2" d="M95.86,3.68a.5.5,0,0,0,0-1,.5.5,0,0,0,0,1Z"/><path class="cls-2" d="M102.09,6.4l-.08.08a.39.39,0,0,0-.1.16.34.34,0,0,0,0,.2.31.31,0,0,0,0,.19.34.34,0,0,0,.1.16l.1.08a.59.59,0,0,0,.26.07l.13,0a.5.5,0,0,0,.22-.13l.08-.08a.39.39,0,0,0,.1-.16.34.34,0,0,0,0-.19.35.35,0,0,0,0-.2.39.39,0,0,0-.1-.16l-.1-.08a.54.54,0,0,0-.25-.06h-.14a.71.71,0,0,0-.22.13Z"/><path class="cls-2" d="M96.51,13.43a.5.5,0,0,0,0-1,.5.5,0,0,0,0,1Z"/><path class="cls-2" d="M96.43,8.56a.5.5,0,0,0,0-1,.5.5,0,0,0,0,1Z"/><path class="cls-2" d="M90.82,6a.5.5,0,0,0,0-1,.5.5,0,0,0,0,1Z"/><path class="cls-2" d="M85.29,2.46a.5.5,0,0,0,0-1,.5.5,0,0,0,0,1Z"/><path class="cls-2" d="M89.85,15.87a.5.5,0,0,0,0-1,.5.5,0,0,0,0,1Z"/><path class="cls-2" d="M91,22.3a.5.5,0,0,0,0-1,.5.5,0,0,0,0,1Z"/><path class="cls-2" d="M96.11,18.88a.5.5,0,0,0,0-1,.5.5,0,0,0,0,1Z"/><path class="cls-2" d="M18.46,2.62a.5.5,0,0,0,0-1,.5.5,0,0,0,0,1Z"/><path class="cls-2" d="M11.07,10.75a.5.5,0,0,0,0-1,.5.5,0,0,0,0,1Z"/><path class="cls-2" d="M9,3.76a.5.5,0,0,0,0-1,.5.5,0,0,0,0,1Z"/><path class="cls-2" d="M13.67,4.82a.5.5,0,0,0,0-1,.5.5,0,0,0,0,1Z"/><path class="cls-2" d="M6.92,17.83a.5.5,0,0,0,0-1,.5.5,0,0,0,0,1Z"/><path class="cls-2" d="M13,23.11a.5.5,0,0,0,0-1,.5.5,0,0,0,0,1Z"/><path class="cls-2" d="M15.37,15.39a.5.5,0,0,0,0-1,.5.5,0,0,0,0,1Z"/><path class="cls-2" d="M40.17,23.6a.5.5,0,0,0,0-1,.5.5,0,0,0,0,1Z"/><path class="cls-2" d="M45.46,15.63a.5.5,0,0,0,0-1,.5.5,0,0,0,0,1Z"/><path class="cls-2" d="M42.93,19.13a.5.5,0,0,0,0-1,.5.5,0,0,0,0,1Z"/><path class="cls-2" d="M53.26,18.8a.5.5,0,0,0,0-1,.5.5,0,0,0,0,1Z"/><path class="cls-2" d="M37.24,8.31a.5.5,0,0,0,0-1,.5.5,0,0,0,0,1Z"/><path class="cls-2" d="M69.36,7.83a.5.5,0,0,0,0-1,.5.5,0,0,0,0,1Z"/><path class="cls-2" d="M56.67,4a.5.5,0,0,0,0-1,.5.5,0,0,0,0,1Z"/><path class="cls-2" d="M60.66,8.8a.5.5,0,0,0,0-1,.5.5,0,0,0,0,1Z"/><path class="cls-2" d="M70.9,21.89a.5.5,0,0,0,0-1,.5.5,0,0,0,0,1Z"/><path class="cls-2" d="M70,20a.5.5,0,0,0,0-1,.5.5,0,0,0,0,1Z"/><path class="cls-2" d="M77.16,17.42a.5.5,0,0,0,0-1,.5.5,0,0,0,0,1Z"/><path class="cls-2" d="M34.64,5.79a.5.5,0,0,0,0-1,.5.5,0,0,0,0,1Z"/></g></svg>