<svg xmlns="http://www.w3.org/2000/svg" xmlns:xlink="http://www.w3.org/1999/xlink" viewBox="0 0 180 40"><defs><style>.cls-1{fill:url(#Unbenannter_Verlauf_39);}.cls-2{fill:#ddde00;}</style><radialGradient id="Unbenannter_Verlauf_39" cx="107.58" cy="15.67" r="63.96" gradientTransform="translate(-45.22 15.2) scale(1.26 0.31)" gradientUnits="userSpaceOnUse"><stop offset="0" stop-color="#eae654" stop-opacity="0.85"/><stop offset="0.22" stop-color="#eae656" stop-opacity="0.84"/><stop offset="0.37" stop-color="#ebe75e" stop-opacity="0.8"/><stop offset="0.49" stop-color="#ece86a" stop-opacity="0.74"/><stop offset="0.61" stop-color="#edea7c" stop-opacity="0.64"/><stop offset="0.71" stop-color="#efed92" stop-opacity="0.53"/><stop offset="0.81" stop-color="#f2f0ae" stop-opacity="0.38"/><stop offset="0.91" stop-color="#f5f4d0" stop-opacity="0.21"/><stop offset="0.99" stop-color="#f8f8f5" stop-opacity="0.02"/><stop offset="1" stop-color="#f8f8f8" stop-opacity="0"/></radialGradient></defs><g id="Ebene_2" data-name="Ebene 2"><rect class="cls-1" width="180" height="40"/></g><g id="Ebene_1" data-name="Ebene 1"><path class="cls-2" d="M21,12.26a1.5,1.5,0,0,0,0-3,1.5,1.5,0,0,0,0,3Z"/><path class="cls-2" d="M90.69,23.21c3.22,0,3.22-5,0-5s-3.22,5,0,5Z"/><path class="cls-2" d="M61.74,22c3.21,0,3.22-5,0-5s-3.23,5,0,5Z"/><path class="cls-2" d="M78.2,32.69c3.22,0,3.22-5,0-5s-3.22,5,0,5Z"/><path class="cls-2" d="M113.05,20.91c3.21,0,3.22-5,0-5s-3.23,5,0,5Z"/><path class="cls-2" d="M109.23,9.89c3.21,0,3.22-5,0-5s-3.23,5,0,5Z"/><path class="cls-2" d="M76.44,13.56c3.22,0,3.23-5,0-5s-3.22,5,0,5Z"/><path class="cls-2" d="M142,13.71c3.22,0,3.22-5,0-5s-3.22,5,0,5Z"/><path class="cls-2" d="M133.23,34.69c3.21,0,3.22-5,0-5s-3.23,5,0,5Z"/><path class="cls-2" d="M40.84,32.24c3.22,0,3.22-5,0-5s-3.22,5,0,5Z"/><path class="cls-2" d="M39.77,11.27c3.21,0,3.22-5,0-5s-3.23,5,0,5Z"/><path class="cls-2" d="M125,7.35a1.5,1.5,0,0,0,0-3,1.5,1.5,0,0,0,0,3Z"/><path class="cls-2" d="M117.76,29.31a1.5,1.5,0,0,0,0-3,1.5,1.5,0,0,0,0,3Z"/><path class="cls-2" d="M107.69,33.31a1.5,1.5,0,0,0,0-3,1.5,1.5,0,0,0,0,3Z"/><path class="cls-2" d="M94.67,12.87a1.5,1.5,0,0,0,0-3,1.5,1.5,0,0,0,0,3Z"/><path class="cls-2" d="M63.05,3.91a1.5,1.5,0,0,0,0-3,1.5,1.5,0,0,0,0,3Z"/><path class="cls-2" d="M45.5,18.54a1.5,1.5,0,0,0,0-3,1.5,1.5,0,0,0,0,3Z"/><path class="cls-2" d="M54.69,32.63a1.5,1.5,0,0,0,0-3,1.5,1.5,0,0,0,0,3Z"/><path class="cls-2" d="M28,26.5a1.5,1.5,0,0,0,0-3,1.5,1.5,0,0,0,0,3Z"/><path class="cls-2" d="M20.07,36.31a1.5,1.5,0,0,0,0-3,1.5,1.5,0,0,0,0,3Z"/><path class="cls-2" d="M97.58,39.52a1.5,1.5,0,0,0,0-3,1.5,1.5,0,0,0,0,3Z"/><path class="cls-2" d="M103.1,24.36a1.5,1.5,0,0,0,0-3,1.5,1.5,0,0,0,0,3Z"/><path class="cls-2" d="M85.33,4a1.5,1.5,0,0,0,0-3,1.5,1.5,0,0,0,0,3Z"/><path class="cls-2" d="M123.93,21.14a1.5,1.5,0,0,0,0-3,1.5,1.5,0,0,0,0,3Z"/><path class="cls-2" d="M144.31,25.89a1.5,1.5,0,0,0,0-3,1.5,1.5,0,0,0,0,3Z"/><path class="cls-2" d="M158.86,17.46a1.5,1.5,0,0,0,0-3,1.5,1.5,0,0,0,0,3Z"/><path class="cls-2" d="M133,17.45a1.5,1.5,0,0,0,0-3,1.5,1.5,0,0,0,0,3Z"/><path class="cls-2" d="M167.59,2.52a.5.5,0,0,0,0-1,.5.5,0,0,0,0,1Z"/><path class="cls-2" d="M176.65,8.41l-.16.15a.39.39,0,0,0-.1.16.34.34,0,0,0,0,.2.31.31,0,0,0,0,.19.34.34,0,0,0,.1.16l.1.08a.59.59,0,0,0,.26.07l.13,0a.5.5,0,0,0,.22-.13l.15-.15a.42.42,0,0,0,.11-.16.45.45,0,0,0,0-.2.43.43,0,0,0,0-.19.42.42,0,0,0-.11-.16l-.1-.08a.55.55,0,0,0-.25-.07l-.13,0a.54.54,0,0,0-.22.13Z"/><path class="cls-2" d="M168.82,20.91a.5.5,0,0,0,0-1,.5.5,0,0,0,0,1Z"/><path class="cls-2" d="M168.66,11.71a.5.5,0,0,0,0-1,.5.5,0,0,0,0,1Z"/><path class="cls-2" d="M158.09,7a.5.5,0,0,0,0-1,.5.5,0,0,0,0,1Z"/><path class="cls-2" d="M149.68,3.23a.5.5,0,0,0,0-1,.5.5,0,0,0,0,1Z"/><path class="cls-2" d="M156.26,25.5a.5.5,0,0,0,0-1,.5.5,0,0,0,0,1Z"/><path class="cls-2" d="M158.4,37.6a.5.5,0,0,0,0-1,.5.5,0,0,0,0,1Z"/><path class="cls-2" d="M168.05,31.17a.5.5,0,0,0,0-1,.5.5,0,0,0,0,1Z"/><path class="cls-2" d="M24.75,3.53a.5.5,0,0,0,0-1,.5.5,0,0,0,0,1Z"/><path class="cls-2" d="M7.81,15.85a.5.5,0,0,0,0-1,.5.5,0,0,0,0,1Z"/><path class="cls-2" d="M3.83,2.68a.5.5,0,0,0,0-1,.5.5,0,0,0,0,1Z"/><path class="cls-2" d="M12.71,4.67a.5.5,0,0,0,0-1,.5.5,0,0,0,0,1Z"/><path class="cls-2" d="M8,32.18a.5.5,0,0,0,0-1,.5.5,0,0,0,0,1Z"/><path class="cls-2" d="M11.49,39.14a.5.5,0,0,0,0-1,.5.5,0,0,0,0,1Z"/><path class="cls-2" d="M15.93,24.58a.5.5,0,0,0,0-1,.5.5,0,0,0,0,1Z"/><path class="cls-2" d="M61.66,39.06a.5.5,0,0,0,0-1,.5.5,0,0,0,0,1Z"/><path class="cls-2" d="M72.61,25a.5.5,0,0,0,0-1,.5.5,0,0,0,0,1Z"/><path class="cls-2" d="M67.86,31.63a.5.5,0,0,0,0-1,.5.5,0,0,0,0,1Z"/><path class="cls-2" d="M87.32,31a.5.5,0,0,0,0-1,.5.5,0,0,0,0,1Z"/><path class="cls-2" d="M57.14,11.26a.5.5,0,0,0,0-1,.5.5,0,0,0,0,1Z"/><path class="cls-2" d="M117.65,10.34a.5.5,0,0,0,0-1,.5.5,0,0,0,0,1Z"/><path class="cls-2" d="M93.75,3.14a.5.5,0,0,0,0-1,.5.5,0,0,0,0,1Z"/><path class="cls-2" d="M101.26,12.17a.5.5,0,0,0,0-1,.5.5,0,0,0,0,1Z"/><path class="cls-2" d="M120.56,36.84a.5.5,0,0,0,0-1,.5.5,0,0,0,0,1Z"/><path class="cls-2" d="M118.88,33.31a.5.5,0,0,0,0-1,.5.5,0,0,0,0,1Z"/><path class="cls-2" d="M134.36,25.41a.5.5,0,0,0,0-1,.5.5,0,0,0,0,1Z"/><path class="cls-2" d="M52.24,6.51a.5.5,0,0,0,0-1,.5.5,0,0,0,0,1Z"/></g></svg>